<svg width="500" height="500" xmlns="http://www.w3.org/2000/svg">

 <g>
  <title>background</title>
  <rect fill="none" id="canvas_background" height="402" width="582" y="-1" x="-1"/>
 </g>
 <g>
  <title>Layer 1</title>
  <path id="svg_1" fill-rule="evenodd" fill="#ffffff" d="m36.992,326.039c0,20.079 16.262,36.34 36.34,36.34l54.513,0l0,56.062c0,10.087 8.181,18.168 18.172,18.168c5.092,0 9.714,-2.095 12.989,-5.448l68.78,-68.781l199.881,0c20.078,0 36.34,-16.261 36.34,-36.34l0,-227.138c0,-20.079 -16.262,-36.341 -36.34,-36.341l-354.334,0c-20.079,0 -36.34,16.262 -36.34,36.341l0,227.137l-0.001,0zm109.026,-104.482c0,-12.536 10.177,-22.713 22.713,-22.713c12.536,0 22.713,10.177 22.713,22.713c0,12.537 -10.177,22.713 -22.713,22.713c-12.537,0 -22.713,-10.177 -22.713,-22.713zm81.769,0c0,-12.536 10.177,-22.713 22.713,-22.713c12.537,0 22.715,10.177 22.715,22.713c0,12.537 -10.178,22.713 -22.715,22.713c-12.536,0 -22.713,-10.177 -22.713,-22.713zm81.769,0c0,-12.536 10.176,-22.713 22.715,-22.713c12.537,0 22.711,10.177 22.711,22.713c0,12.537 -10.174,22.713 -22.711,22.713c-12.54,0 -22.715,-10.177 -22.715,-22.713z" clip-rule="evenodd"/>
 </g>
</svg>